<svg width="59" height="30" viewBox="0 0 59 30" fill="none" xmlns="http://www.w3.org/2000/svg">
<g clip-path="url(#clip0_1355_25861)">
<path d="M3.13435 7.99486L2.06454 6.8125C0.741358 9.05523 0 11.6545 0 14.3008H0.741358C0.741358 11.8234 1.60471 9.57134 3.13435 7.98547V7.99486Z" fill="url(#paint0_linear_1355_25861)"/>
<path d="M2.93728 19.6026C1.59533 18.3358 0.731973 16.6092 0.731973 14.3102H0.741358L0 14.3008C0 16.9939 0.478598 19.4994 1.42641 21.6764L2.93728 19.6026Z" fill="url(#paint1_linear_1355_25861)"/>
<path d="M26.4639 12.3965L25.0938 13.8134C26.9988 13.8416 28.1624 15.3055 28.1249 17.1822H28.8662C28.8662 15.3336 28.0029 13.6539 26.4732 12.3965H26.4639Z" fill="url(#paint2_linear_1355_25861)"/>
<path d="M28.8667 17.1816H28.1253C28.0878 18.7206 27.2713 20.0155 25.4414 20.9727L27.3652 23.6283C28.3036 21.8923 28.8573 19.7622 28.8573 17.1816H28.8667Z" fill="url(#paint3_linear_1355_25861)"/>
<path d="M3.9032 12.1423C3.85628 12.4332 3.82812 12.7241 3.82812 13.0244C3.82812 17.4442 7.11262 20.2593 11.2699 20.2593C19.1714 20.2593 21.5081 13.8033 25.046 13.8033C25.0647 13.8033 25.0835 13.8033 25.1023 13.8033L26.4724 12.3863C24.7644 10.9788 22.2401 10.0967 19.1714 10.0967C12.9215 10.0967 9.59007 15.3141 6.75602 15.3141C5.51729 15.3141 4.57887 13.9628 4.57887 12.6491C4.57887 12.5083 4.57887 12.3769 4.59764 12.2456L3.92197 12.133L3.9032 12.1423Z" fill="url(#paint4_linear_1355_25861)"/>
<path d="M8.80432 5.66781C13.3745 5.66781 16.537 9.12105 20.6097 9.12105C25.4896 9.12105 28.1922 6.73757 28.8773 2.09259L28.1359 1.9706C27.9295 3.19987 27.1224 4.68251 25.6866 4.68251C24.3259 4.68251 22.8901 3.49077 20.788 2.33657C18.686 1.14482 16.2836 0 13.2806 0C8.4571 0 4.37494 2.84329 2.06641 6.80325L3.13621 7.98561C4.52509 6.54989 6.45825 5.66781 8.80432 5.66781Z" fill="url(#paint5_linear_1355_25861)"/>
<path d="M13.5729 22.8386C10.0351 22.8386 5.56815 22.0691 2.94056 19.5918L1.42969 21.6656C3.60684 26.6766 8.25205 29.989 15.2152 29.989C19.8135 29.989 24.9091 28.1686 27.3678 23.6174L25.444 20.9618C23.173 22.1536 19.3536 22.8386 13.5729 22.8386Z" fill="url(#paint6_linear_1355_25861)"/>
<path d="M40.9695 22.4644C36.3994 22.4644 33.875 19.4616 33.875 15.0137C33.875 10.5657 36.6058 7.52539 41.054 7.52539C42.8276 7.52539 44.3103 7.93828 45.4552 8.58576L44.9766 11.6918C43.888 11.0068 42.6211 10.4625 41.1384 10.4625C38.661 10.4625 37.4504 12.3017 37.4504 14.9855C37.4504 17.6693 38.6985 19.6023 41.1854 19.6023C41.983 19.6023 42.5461 19.4522 43.1279 19.1425V16.5714H40.6223L40.2094 13.9251H46.2435V20.9348C44.742 21.9201 42.9684 22.455 40.9883 22.455" fill="white"/>
<path d="M53.0729 22.3523C51.1304 22.3523 49.5069 21.9394 48.043 21.2638L48.5685 18.214C50.0512 19.0117 51.7028 19.5465 53.1386 19.5465C54.1615 19.5465 54.8747 19.1055 54.8747 18.2516C54.8747 17.3977 54.4618 17.0598 52.4348 16.2904C49.5538 15.1831 48.3057 14.2447 48.3057 11.8706C48.3057 9.09299 50.4735 7.61035 53.2325 7.61035C55.1187 7.61035 56.3199 7.96694 57.5774 8.5675L57.0331 11.5703C55.7475 10.8196 54.3867 10.4067 53.2794 10.4067C52.172 10.4067 51.6747 10.8665 51.6747 11.5328C51.6747 12.2647 52.0688 12.6213 53.8612 13.3063C56.9956 14.4511 58.2437 15.5397 58.2437 17.8387C58.2437 20.9729 55.9445 22.3429 53.0823 22.3429" fill="white"/>
</g>
<defs>
<linearGradient id="paint0_linear_1355_25861" x1="3.57541" y1="7.34738" x2="-0.81771" y2="11.7407" gradientUnits="userSpaceOnUse">
<stop stop-color="#FFB300"/>
<stop offset="1" stop-color="#B9BD0D"/>
</linearGradient>
<linearGradient id="paint1_linear_1355_25861" x1="-0.87574" y1="15.0064" x2="2.88153" y2="18.7639" gradientUnits="userSpaceOnUse">
<stop stop-color="#B9BD0D"/>
<stop offset="1" stop-color="#73BE1E"/>
</linearGradient>
<linearGradient id="paint2_linear_1355_25861" x1="25.8025" y1="12.2325" x2="28.9817" y2="15.4118" gradientUnits="userSpaceOnUse">
<stop stop-color="#80CFE2"/>
<stop offset="1" stop-color="#41B3A9"/>
</linearGradient>
<linearGradient id="paint3_linear_1355_25861" x1="29.5604" y1="17.5788" x2="26.3233" y2="20.816" gradientUnits="userSpaceOnUse">
<stop stop-color="#41B3A9"/>
<stop offset="1" stop-color="#00947E"/>
</linearGradient>
<linearGradient id="paint4_linear_1355_25861" x1="5.48238" y1="14.1392" x2="25.1079" y2="14.1392" gradientUnits="userSpaceOnUse">
<stop stop-color="#0A50A1"/>
<stop offset="1" stop-color="#80CFE2"/>
</linearGradient>
<linearGradient id="paint5_linear_1355_25861" x1="2.1321" y1="3.53244" x2="28.9546" y2="3.53244" gradientUnits="userSpaceOnUse">
<stop stop-color="#FFB300"/>
<stop offset="0.03" stop-color="#FFAE00"/>
<stop offset="0.7" stop-color="#FF6000"/>
<stop offset="1" stop-color="#FF4100"/>
</linearGradient>
<linearGradient id="paint6_linear_1355_25861" x1="3.00061" y1="23.7529" x2="25.5165" y2="23.7529" gradientUnits="userSpaceOnUse">
<stop stop-color="#73BE1E"/>
<stop offset="1" stop-color="#00947E"/>
</linearGradient>
<clipPath id="clip0_1355_25861">
<rect width="58.2462" height="29.9891" fill="white"/>
</clipPath>
</defs>
</svg>
